<svg xmlns="http://www.w3.org/2000/svg" viewBox="0 0 48 48" fill="none">
  <defs>
    <linearGradient id="sol-grad" x1="0" y1="0" x2="1" y2="1">
      <stop offset="0%" stop-color="#00FFA3"></stop>
      <stop offset="50%" stop-color="#9945FF"></stop>
      <stop offset="100%" stop-color="#DC1FFF"></stop>
    </linearGradient>
  </defs>
  <rect width="48" height="48" rx="12" fill="#0B1020"></rect>
  <path d="M12 32 Q14 30 17 30 L36 30 Q37 30 36 31 L33 34 Q31 36 28 36 L11 36 Q10 36 11 35 Z" fill="url(#sol-grad)"></path>
  <path d="M12 22 Q14 20 17 20 L36 20 Q37 20 36 21 L33 24 Q31 26 28 26 L11 26 Q10 26 11 25 Z" fill="url(#sol-grad)" opacity="0.85"></path>
  <path d="M12 12 Q14 10 17 10 L36 10 Q37 10 36 11 L33 14 Q31 16 28 16 L11 16 Q10 16 11 15 Z" fill="url(#sol-grad)" opacity="0.7"></path>
</svg>